<svg width="138" height="64" viewBox="0 0 138 64" fill="none" xmlns="http://www.w3.org/2000/svg">
<path d="M29.628 25.544C29.628 27.584 29.1 29.456 28.044 31.16C26.988 32.864 25.452 34.256 23.436 35.336C21.42 36.416 19.02 37.052 16.236 37.244L14.688 45.92C14.088 49.256 12.456 50.924 9.792 50.924C8.328 50.924 6.972 50.492 5.724 49.628C4.5 48.764 3.516 47.444 2.772 45.668C2.028 43.892 1.656 41.708 1.656 39.116C1.656 34.244 2.436 30.116 3.996 26.732C5.58 23.324 7.692 20.78 10.332 19.1C12.996 17.396 15.924 16.544 19.116 16.544C21.372 16.544 23.28 16.94 24.84 17.732C26.424 18.524 27.612 19.604 28.404 20.972C29.22 22.316 29.628 23.84 29.628 25.544ZM16.884 33.536C21.804 32.912 24.264 30.356 24.264 25.868C24.264 24.284 23.736 23 22.68 22.016C21.648 21.008 20.04 20.504 17.856 20.504C15.384 20.504 13.224 21.284 11.376 22.844C9.552 24.404 8.136 26.576 7.128 29.36C6.144 32.12 5.652 35.276 5.652 38.828C5.652 40.316 5.796 41.636 6.084 42.788C6.396 43.94 6.78 44.84 7.236 45.488C7.716 46.112 8.172 46.424 8.604 46.424C9.204 46.424 9.66 45.596 9.972 43.94L11.16 37.136C10.224 36.992 9.816 36.932 9.936 36.956C9.216 36.836 8.748 36.62 8.532 36.308C8.316 35.972 8.208 35.552 8.208 35.048C8.208 34.52 8.352 34.1 8.64 33.788C8.952 33.476 9.372 33.32 9.9 33.32C10.14 33.32 10.32 33.332 10.44 33.356C11.016 33.452 11.46 33.512 11.772 33.536C12.084 31.664 12.528 29.156 13.104 26.012C13.248 25.196 13.572 24.62 14.076 24.284C14.604 23.924 15.216 23.744 15.912 23.744C16.704 23.744 17.268 23.9 17.604 24.212C17.964 24.5 18.144 24.968 18.144 25.616C18.144 26 18.12 26.312 18.072 26.552L16.884 33.536ZM32.0662 47.18C30.5782 47.18 29.3902 46.64 28.5022 45.56C27.6142 44.48 27.1702 43.064 27.1702 41.312C27.1702 39.392 27.6142 37.58 28.5022 35.876C29.3902 34.148 30.5662 32.768 32.0302 31.736C33.5182 30.68 35.0902 30.152 36.7462 30.152C37.2742 30.152 37.6222 30.26 37.7902 30.476C37.9822 30.668 38.1382 31.028 38.2582 31.556C38.7622 31.46 39.2902 31.412 39.8422 31.412C41.0182 31.412 41.6062 31.832 41.6062 32.672C41.6062 33.176 41.4262 34.376 41.0662 36.272C40.5142 39.032 40.2382 40.952 40.2382 42.032C40.2382 42.392 40.3222 42.68 40.4902 42.896C40.6822 43.112 40.9222 43.22 41.2102 43.22C41.6662 43.22 42.2182 42.932 42.8662 42.356C43.5142 41.756 44.3902 40.796 45.4942 39.476C45.7822 39.14 46.1062 38.972 46.4662 38.972C46.7782 38.972 47.0182 39.116 47.1862 39.404C47.3782 39.692 47.4742 40.088 47.4742 40.592C47.4742 41.552 47.2462 42.296 46.7902 42.824C45.8062 44.048 44.7622 45.08 43.6582 45.92C42.5542 46.76 41.4862 47.18 40.4542 47.18C39.6622 47.18 38.9302 46.916 38.2582 46.388C37.6102 45.836 37.1182 45.092 36.7822 44.156C35.5342 46.172 33.9622 47.18 32.0662 47.18ZM33.3622 43.544C33.8902 43.544 34.3942 43.232 34.8742 42.608C35.3542 41.984 35.7022 41.156 35.9182 40.124L37.2502 33.5C36.2422 33.524 35.3062 33.908 34.4422 34.652C33.6022 35.372 32.9302 36.332 32.4262 37.532C31.9222 38.732 31.6702 40.004 31.6702 41.348C31.6702 42.092 31.8142 42.644 32.1022 43.004C32.4142 43.364 32.8342 43.544 33.3622 43.544ZM63.7723 38.972C64.0843 38.972 64.3243 39.116 64.4923 39.404C64.6843 39.692 64.7803 40.088 64.7803 40.592C64.7803 41.552 64.5523 42.296 64.0963 42.824C63.0643 44.096 61.9483 45.14 60.7483 45.956C59.5723 46.772 58.2283 47.18 56.7163 47.18C55.4443 47.18 54.4123 46.724 53.6203 45.812C52.2523 46.7 50.8243 47.156 49.3363 47.18C49.0243 51.812 48.3163 55.676 47.2123 58.772C46.1083 61.892 44.4883 63.452 42.3523 63.452C41.0563 63.452 40.0963 62.984 39.4723 62.048C38.8483 61.112 38.5363 59.816 38.5363 58.16C38.5363 55.808 39.0763 53.06 40.1563 49.916C41.2363 46.796 42.9043 43.352 45.1603 39.584C45.1603 36.08 45.1363 33.644 45.0883 32.276C45.0643 31.58 45.3403 31.028 45.9163 30.62C46.4923 30.212 47.2123 30.008 48.0763 30.008C48.5803 30.008 48.9403 30.116 49.1563 30.332C49.3963 30.524 49.5283 30.92 49.5523 31.52C49.5523 32.12 49.5643 32.564 49.5883 32.852C50.3563 31.892 51.1123 31.208 51.8563 30.8C52.6003 30.368 53.3923 30.152 54.2323 30.152C55.5763 30.152 56.6683 30.692 57.5083 31.772C58.3723 32.852 58.8043 34.268 58.8043 36.02C58.8043 37.292 58.6003 38.528 58.1923 39.728C57.7843 40.928 57.2203 42.02 56.5003 43.004C57.0043 43.148 57.4243 43.22 57.7603 43.22C58.5523 43.22 59.3083 42.932 60.0283 42.356C60.7483 41.78 61.6723 40.82 62.8003 39.476C63.0883 39.14 63.4123 38.972 63.7723 38.972ZM49.5163 43.724C50.3803 43.532 51.1723 43.064 51.8923 42.32C52.6363 41.552 53.2243 40.616 53.6563 39.512C54.0883 38.384 54.3043 37.208 54.3043 35.984C54.3043 35.264 54.1603 34.724 53.8723 34.364C53.5843 33.98 53.2003 33.788 52.7203 33.788C51.8563 33.788 50.8123 34.7 49.5883 36.524C49.5643 37.58 49.5523 39.128 49.5523 41.168C49.5523 42.272 49.5403 43.124 49.5163 43.724ZM42.6403 59.924C43.2883 59.924 43.8283 58.508 44.2603 55.676C44.6923 52.868 44.9683 49.364 45.0883 45.164C44.0563 47.564 43.2403 49.856 42.6403 52.04C42.0403 54.224 41.7403 56.06 41.7403 57.548C41.7403 58.316 41.8363 58.904 42.0283 59.312C42.1963 59.72 42.4003 59.924 42.6403 59.924ZM66.5963 27.848C65.5883 27.848 64.8323 27.62 64.3283 27.164C63.8243 26.684 63.5723 26.024 63.5723 25.184C63.5723 24.344 63.8963 23.648 64.5443 23.096C65.2163 22.52 66.0443 22.232 67.0283 22.232C67.9163 22.232 68.6363 22.448 69.1883 22.88C69.7403 23.312 70.0163 23.924 70.0163 24.716C70.0163 25.676 69.7043 26.444 69.0803 27.02C68.4563 27.572 67.6283 27.848 66.5963 27.848ZM66.3083 47.18C64.7483 47.18 63.6083 46.628 62.8883 45.524C62.1923 44.42 61.8443 42.956 61.8443 41.132C61.8443 40.052 61.9763 38.672 62.2403 36.992C62.5283 35.288 62.8883 33.704 63.3203 32.24C63.5363 31.472 63.8243 30.944 64.1843 30.656C64.5443 30.368 65.1203 30.224 65.9123 30.224C67.1363 30.224 67.7483 30.632 67.7483 31.448C67.7483 32.048 67.5203 33.44 67.0643 35.624C66.4883 38.264 66.2003 40.052 66.2003 40.988C66.2003 41.708 66.2963 42.26 66.4883 42.644C66.6803 43.028 67.0043 43.22 67.4603 43.22C67.8923 43.22 68.4323 42.92 69.0803 42.32C69.7283 41.72 70.5923 40.772 71.6723 39.476C71.9603 39.14 72.2843 38.972 72.6443 38.972C72.9563 38.972 73.1963 39.116 73.3643 39.404C73.5563 39.692 73.6523 40.088 73.6523 40.592C73.6523 41.552 73.4243 42.296 72.9683 42.824C70.5923 45.728 68.3723 47.18 66.3083 47.18ZM73.2957 47.18C72.3837 47.18 71.7357 46.7 71.3517 45.74C70.9917 44.78 70.8117 43.244 70.8117 41.132C70.8117 38.012 71.2557 35.048 72.1437 32.24C72.3597 31.544 72.7077 31.04 73.1877 30.728C73.6917 30.392 74.3877 30.224 75.2757 30.224C75.7557 30.224 76.0917 30.284 76.2837 30.404C76.4757 30.524 76.5717 30.752 76.5717 31.088C76.5717 31.472 76.3917 32.336 76.0317 33.68C75.7917 34.64 75.5997 35.48 75.4557 36.2C75.3117 36.92 75.1917 37.808 75.0957 38.864C75.8877 36.8 76.7757 35.12 77.7597 33.824C78.7437 32.528 79.7037 31.604 80.6397 31.052C81.5997 30.5 82.4757 30.224 83.2677 30.224C84.8277 30.224 85.6077 31.004 85.6077 32.564C85.6077 32.876 85.4997 33.632 85.2837 34.832C85.0917 35.792 84.9957 36.392 84.9957 36.632C84.9957 37.472 85.2957 37.892 85.8957 37.892C86.5677 37.892 87.4317 37.364 88.4877 36.308C88.7997 35.996 89.1237 35.84 89.4597 35.84C89.7717 35.84 90.0117 35.984 90.1797 36.272C90.3717 36.536 90.4677 36.896 90.4677 37.352C90.4677 38.24 90.2277 38.936 89.7477 39.44C89.0757 40.136 88.2837 40.736 87.3717 41.24C86.4837 41.72 85.5357 41.96 84.5277 41.96C83.2557 41.96 82.2837 41.636 81.6117 40.988C80.9637 40.34 80.6397 39.464 80.6397 38.36C80.6397 38 80.6757 37.64 80.7477 37.28C80.7957 36.8 80.8197 36.476 80.8197 36.308C80.8197 35.924 80.6877 35.732 80.4237 35.732C80.0637 35.732 79.5837 36.14 78.9837 36.956C78.4077 37.748 77.8317 38.804 77.2557 40.124C76.6797 41.444 76.2117 42.836 75.8517 44.3C75.5877 45.428 75.2757 46.196 74.9157 46.604C74.5797 46.988 74.0397 47.18 73.2957 47.18ZM90.7945 47.18C89.7145 47.18 88.8265 46.688 88.1305 45.704C87.4585 44.696 87.1225 43.448 87.1225 41.96C87.1225 40.16 87.2425 38.516 87.4825 37.028C87.7225 35.516 88.1185 33.92 88.6705 32.24C88.9105 31.52 89.2465 31.004 89.6785 30.692C90.1105 30.38 90.7945 30.224 91.7305 30.224C92.2585 30.224 92.6185 30.308 92.8105 30.476C93.0265 30.644 93.1345 30.896 93.1345 31.232C93.1345 31.424 93.0025 32.072 92.7385 33.176C92.4985 34.064 92.3065 34.868 92.1625 35.588C91.6825 38.108 91.4425 39.788 91.4425 40.628C91.4425 41.132 91.5025 41.492 91.6225 41.708C91.7425 41.9 91.9345 41.996 92.1985 41.996C92.5585 41.996 93.0025 41.636 93.5305 40.916C94.0825 40.196 94.6585 39.104 95.2585 37.64C95.8825 36.176 96.4825 34.376 97.0585 32.24C97.2505 31.52 97.5385 31.004 97.9225 30.692C98.3305 30.38 98.9305 30.224 99.7225 30.224C100.275 30.224 100.659 30.296 100.875 30.44C101.091 30.56 101.199 30.8 101.199 31.16C101.199 31.76 100.899 33.404 100.299 36.092C99.6265 39.164 99.2905 41.06 99.2905 41.78C99.2905 42.236 99.3865 42.596 99.5785 42.86C99.7705 43.1 100.023 43.22 100.335 43.22C100.815 43.22 101.379 42.932 102.027 42.356C102.699 41.756 103.587 40.796 104.691 39.476C104.979 39.14 105.303 38.972 105.663 38.972C105.975 38.972 106.215 39.116 106.383 39.404C106.575 39.692 106.671 40.088 106.671 40.592C106.671 41.552 106.443 42.296 105.987 42.824C104.955 44.096 103.839 45.14 102.639 45.956C101.463 46.772 100.119 47.18 98.6065 47.18C97.4545 47.18 96.6025 46.736 96.0505 45.848C95.5225 44.96 95.2585 43.712 95.2585 42.104C94.8505 43.736 94.2385 44.996 93.4225 45.884C92.6065 46.748 91.7305 47.18 90.7945 47.18ZM110.447 47.972C109.199 47.972 108.239 47.684 107.567 47.108C106.919 46.532 106.595 45.884 106.595 45.164C106.595 44.54 106.823 44 107.279 43.544C107.735 43.088 108.407 42.86 109.295 42.86C109.607 42.86 109.967 42.896 110.375 42.968C110.807 43.016 111.131 43.052 111.347 43.076C111.323 42.452 111.179 41.864 110.915 41.312C110.675 40.76 110.363 40.232 109.979 39.728C109.595 39.2 109.235 38.744 108.899 38.36C108.155 39.776 107.411 40.952 106.667 41.888C105.947 42.824 105.155 43.712 104.291 44.552C103.859 44.984 103.403 45.2 102.923 45.2C102.539 45.2 102.227 45.068 101.987 44.804C101.747 44.516 101.627 44.168 101.627 43.76C101.627 43.28 101.795 42.836 102.131 42.428L102.599 41.852C103.919 40.22 104.915 38.876 105.587 37.82C106.019 37.124 106.451 36.296 106.883 35.336C107.339 34.376 107.927 33.068 108.647 31.412C109.103 30.356 110.051 29.828 111.491 29.828C112.163 29.828 112.631 29.888 112.895 30.008C113.159 30.128 113.291 30.32 113.291 30.584C113.291 30.728 113.243 30.956 113.147 31.268C113.051 31.58 112.919 31.892 112.751 32.204C112.319 33.068 112.103 33.8 112.103 34.4C112.103 34.76 112.223 35.156 112.463 35.588C112.727 36.02 113.123 36.56 113.651 37.208C114.419 38.216 114.995 39.08 115.379 39.8C115.787 40.496 115.991 41.264 115.991 42.104C115.991 43.112 115.751 44.072 115.271 44.984C114.815 45.872 114.167 46.592 113.327 47.144C112.487 47.696 111.527 47.972 110.447 47.972Z" fill="url(#paint0_linear)"/>
<g clip-path="url(#clip0)">
<path d="M138 39.49C135.13 46.6988 128.255 42.3377 128.255 42.3377C126.146 46.6514 122.661 49.4252 118.641 49.441C117.802 49.441 117.776 48.1543 118.641 48.1543C121.995 48.1385 124.917 45.9025 126.828 42.3482C124.688 43.1867 120.651 43.8195 118.411 38.0135C124.089 35.6457 126.698 38.6041 127.698 40.4129C128.214 39.1262 128.583 37.7287 128.823 36.21C128.823 36.21 121.547 37.3648 121.036 31.0367C127.24 28.5107 128.984 35.0814 128.984 35.0814C129.068 34.2008 129.156 32.3076 129.156 32.2654C129.156 32.2654 123.62 28.3789 127.172 23.5537C133.661 25.8213 130.37 32.1178 130.37 32.1178C130.396 32.2021 130.396 33.3729 130.37 33.8791C130.37 33.8791 132.724 29.1857 137.474 30.8469C137.255 37.9133 130.083 36.4578 130.083 36.4578C129.854 37.9027 129.5 39.2738 129.042 40.5447C129.042 40.5447 133.365 35.7037 138 39.49Z" fill="#025918"/>
</g>
<defs>
<linearGradient id="paint0_linear" x1="64" y1="0" x2="64" y2="47" gradientUnits="userSpaceOnUse">
<stop offset="0.557292" stop-color="#D99559"/>
</linearGradient>
<clipPath id="clip0">
<rect width="20" height="27" fill="white" transform="translate(118 23)"/>
</clipPath>
</defs>
</svg>

